HIERARCHY
ROOT hip
{
	OFFSET 0.000000 0.000000 0.000000 
	CHANNELS 6 Xposition Yposition Zposition Xrotation Zrotation Yrotation
	JOINT abdomen
	{
		OFFSET 0.000000 3.402643 0.000000 
		CHANNELS 3 Xrotation Zrotation Yrotation
		JOINT chest
		{
			OFFSET 0.000000 8.438565 -0.680529 
			CHANNELS 3 Xrotation Zrotation Yrotation
			JOINT neck
			{
				OFFSET 0.000000 10.207942 -0.272212 
				CHANNELS 3 Xrotation Zrotation Yrotation
				JOINT head
				{
					OFFSET 0.000000 3.130431 0.000000 
					CHANNELS 3 Xrotation Zrotation Yrotation
					End Site
					{
						OFFSET 0.000000 3.130435 0.000000 
					}
				}
			}
			JOINT lCollar
			{
				OFFSET 3.470700 6.669187 -0.816635 
				CHANNELS 3 Yrotation Zrotation Xrotation
				JOINT lShldr
				{
					OFFSET 3.198488 0.000000 0.000000 
					CHANNELS 3 Zrotation Yrotation Xrotation
					JOINT lForeArm
					{
						OFFSET 10.139888 0.000000 0.000000 
						CHANNELS 3 Yrotation Zrotation Xrotation
						JOINT lHand
						{
							OFFSET 8.370511 0.000000 0.000000 
							CHANNELS 3 Zrotation Yrotation Xrotation
							End Site
							{
								OFFSET 4.083176 0.000000 0.000000 
							}
						}
					}
				}
			}
			JOINT rCollar
			{
				OFFSET -3.470700 6.669187 -0.816635 
				CHANNELS 3 Yrotation Zrotation Xrotation
				JOINT rShldr
				{
					OFFSET -3.198488 0.000000 0.000000 
					CHANNELS 3 Zrotation Yrotation Xrotation
					JOINT rForeArm
					{
						OFFSET -10.139888 0.000000 0.000000 
						CHANNELS 3 Yrotation Zrotation Xrotation
						JOINT rHand
						{
							OFFSET -8.370511 0.000000 0.000000 
							CHANNELS 3 Zrotation Yrotation Xrotation
							End Site
							{
								OFFSET -4.083176 0.000000 0.000000 
							}
						}
					}
				}
			}
		}
	}
	JOINT lThigh
	{
		OFFSET 5.308129 -1.633274 1.361059 
		CHANNELS 3 Xrotation Zrotation Yrotation
		JOINT lShin
		{
			OFFSET -2.041588 -20.007561 0.000000 
			CHANNELS 3 Xrotation Zrotation Yrotation
			JOINT lFoot
			{
				OFFSET 0.000000 -19.190928 -1.224953 
				CHANNELS 3 Xrotation Yrotation Zrotation
				End Site
				{
					OFFSET 0.000000 -2.449906 4.627600 
				}
			}
		}
	}
	JOINT rThigh
	{
		OFFSET -5.308129 -1.633274 1.361059 
		CHANNELS 3 Xrotation Zrotation Yrotation
		JOINT rShin
		{
			OFFSET 2.041588 -20.007561 0.000000 
			CHANNELS 3 Xrotation Zrotation Yrotation
			JOINT rFoot
			{
				OFFSET 0.000000 -19.190928 -1.224953 
				CHANNELS 3 Xrotation Yrotation Zrotation
				End Site
				{
					OFFSET 0.000000 -2.449906 4.627600 
				}
			}
		}
	}
}
MOTION
Frames: 6
Frame Time: 0.016667
0.000000 49.845860 0.000000 -12.505146 2.011712 -0.146394 5.019107 -0.166015 0.146484 18.754759 -2.624548 2.453518 16.965067 -3.632375 0.889980 -20.860500 2.581994 3.871175 -11.867298 -9.994853 -5.404135 -66.647385 15.955402 50.931026 -27.613327 26.825541 -0.293221 4.856235 5.283297 -3.349180 25.570160 6.633401 -7.467765 70.637657 -15.088026 52.726273 19.623392 -20.506968 -3.358791 7.038601 19.680902 -8.065410 12.774198 5.338862 0.773937 7.320364 -11.234352 17.096804 -9.589499 -0.559661 1.717296 13.160581 -6.129981 4.696688 3.381155 9.574336 -6.227193 -5.023772 0.751790 -3.054164 
0.001846 49.847305 0.004651 -12.524310 2.001947 -0.136635 5.019107 -0.166015 0.146484 18.791344 -2.253843 2.423457 16.935787 -3.671443 0.880229 -20.928997 2.737951 3.852121 -11.897112 -9.980410 -5.413009 -66.676964 15.997875 50.779362 -27.583111 26.804783 -0.186366 4.813017 5.100177 -3.311235 25.686480 6.665063 -7.488705 70.746506 -15.220183 52.325989 19.675587 -20.583012 -3.027409 7.094657 19.712248 -8.049552 12.798915 5.331388 0.781425 7.320897 -11.199184 17.059887 -9.599169 -0.553180 1.720396 13.217027 -6.099232 4.683261 3.312440 9.514104 -6.246052 -4.973454 0.747701 -3.076965 
0.003692 49.848751 0.009302 -12.543138 1.992183 -0.117117 5.019107 -0.166015 0.146484 18.836897 -1.892879 2.393853 16.906521 -3.710510 0.870478 -20.998095 2.893947 3.823343 -11.916489 -9.978602 -5.412648 -66.704498 16.029535 50.636089 -27.558340 26.798502 -0.091552 4.768669 4.917931 -3.281775 25.802814 6.696633 -7.509574 70.853218 -15.342838 51.925083 19.727320 -20.649300 -2.692590 7.164142 19.741543 -8.027975 12.814147 5.320100 0.779425 7.318028 -11.166599 17.032070 -9.638171 -0.559550 1.728179 13.288024 -6.081566 4.688255 3.242060 9.454134 -6.285842 -4.915645 0.763704 -3.080500 
0.006212 49.849598 0.013838 -12.562311 1.982418 -0.107358 5.019107 -0.166015 0.146484 18.838188 -1.892933 2.354489 16.906321 -3.642139 0.889979 -21.104059 2.923212 3.813591 -11.930449 -9.939924 -5.401191 -66.742813 16.065495 50.498539 -27.522884 26.783339 0.027595 4.761918 4.720954 -3.280407 25.885738 6.721054 -7.513565 70.943764 -15.426097 51.611519 19.759651 -20.716389 -2.409772 7.203053 19.765224 -8.010797 12.841083 5.331848 0.780151 7.349977 -11.147837 17.019518 -9.638422 -0.577467 1.719596 13.337416 -6.042610 4.666606 3.195111 9.397022 -6.261738 -4.903790 0.735831 -3.081777 
0.008732 49.850445 0.018374 -12.571386 1.972654 -0.087839 5.019107 -0.166015 0.146484 18.839085 -1.902743 2.315446 16.906010 -3.583534 0.909479 -21.211184 2.942766 3.794086 -11.943688 -9.912994 -5.382010 -66.786530 16.089211 50.365719 -27.477781 26.768423 0.142457 4.755655 4.514262 -3.279779 25.960112 6.742437 -7.527988 71.026970 -15.503228 51.288845 19.801222 -20.773321 -2.136856 7.250417 19.799845 -7.987543 12.841763 5.329117 0.769657 7.386528 -11.126892 17.024759 -9.638405 -0.576155 1.720226 13.371814 -6.011495 4.662480 3.144967 9.350980 -6.268142 -4.901838 0.710418 -3.082148 
0.012693 49.851173 0.023657 -12.619519 1.953124 -0.068320 5.019107 -0.166015 0.146484 18.887518 -1.912500 2.315444 16.846643 -3.378415 0.977743 -21.204414 2.757657 3.783841 -11.962198 -9.858036 -5.349885 -66.860741 16.069010 50.249840 -27.451349 26.754490 0.281690 4.736753 4.355571 -3.274770 25.908785 6.747586 -7.513523 71.100311 -15.527115 51.121891 19.832632 -20.820902 -1.932170 7.311453 19.818203 -7.971949 12.898127 5.321755 0.777043 7.378677 -11.096821 16.998606 -9.628577 -0.560545 1.716898 13.442313 -5.992652 4.677599 3.117035 9.328764 -6.291437 -4.873680 0.717507 -3.068251 
